<svg version="1.1" id="Layer_1" xmlns="http://www.w3.org/2000/svg" xmlns:xlink="http://www.w3.org/1999/xlink" x="0px" y="0px"
	 width="250px" height="20px" viewBox="0 0 250 20" enable-background="new 0 0 250 20" xml:space="preserve">
<g>
	<path fill="#000000" d="M242.4,17.4c-1.4,1.9-3.1,2.5-5.5,2.5c-3.8,0-6.2-2.8-6.2-6.4c0-3.8,2.6-6.4,6.2-6.4c3.4,0,5.8,2.4,5.8,6.4
		v0.7h-9.8c0.1,2.1,1.8,3.9,3.9,3.9c1.8,0,3-0.6,3.9-1.9L242.4,17.4z M240.8,12.4c-0.1-2-1.4-3.4-3.7-3.4c-2.3,0-3.7,1.4-3.9,3.4
		H240.8z"/>
	<path fill="#000000" d="M250,18.2c0,0.8-0.7,1.5-1.5,1.5c-0.8,0-1.5-0.7-1.5-1.5s0.7-1.5,1.5-1.5C249.3,16.6,250,17.3,250,18.2z"/>
	<path fill="#000000" d="M208.2,0h2v9.2l0,0c1.1-1.3,2.6-2,4.4-2c3.8,0,6.4,2.7,6.4,6.4s-2.7,6.4-6,6.4c-2.1,0-3.9-1.1-4.6-2.5l0,0
		v2.1h-2V0H208.2z M214.6,18c2.6,0,4.3-2,4.3-4.5S217.2,9,214.6,9c-2.6,0-4.3,2-4.3,4.5C210.2,16.1,211.8,18,214.6,18z"/>
	<path fill="#000000" d="M225,0h2v19.5h-2V0z"/>
	<g>
		<path fill="#000000" d="M0,1.3h5.6c3.1,0,6,1.2,6,4.5c0,2.1-1.3,3.6-3.2,4.1l0,0c2.4,0.2,4.1,2.1,4.1,4.5c0,4-3.8,5.1-7.1,5.1H0
			V1.3z M2.1,9h3c2,0,4.1-0.5,4.1-3c0-2.3-2-2.7-3.9-2.7H2.1V9z M2.1,17.5h3.7c2.1,0,4.4-0.8,4.4-3.2c0-2.6-2.1-3.3-4.4-3.3H2.1
			V17.5z"/>
		<path fill="#000000" d="M27.1,16.7c0,1.1,0.1,2.1,0.1,2.8h-1.9c0-0.6,0-1.3,0-2h-0.1c-0.6,1.2-2,2.3-4,2.3c-3.2,0-4.6-2-4.6-5V7.5
			h2v7.2c0,2,0.8,3.3,2.7,3.3c2.6,0,3.8-1.9,3.8-4.6V7.5h2L27.1,16.7L27.1,16.7z"/>
		<path fill="#000000" d="M31.6,10.3c0-1.1-0.1-2-0.1-2.8h1.9c0,0.6,0,1.3,0,2l0,0c0.6-1.2,2-2.3,4-2.3c2.6,0,3.4,1.4,3.8,2.3
			c0.8-1.4,2-2.3,3.8-2.3c3.4,0,4.6,1.9,4.6,5.1v7.3h-2v-7.3c0-1.7-0.6-3.3-3-3.3c-1.7,0-3.1,1.4-3.1,3.6v7h-1.9v-6.9
			C39.7,10,39,9,37.3,9c-2.6,0-3.8,1.9-3.8,4.6v5.9h-2L31.6,10.3L31.6,10.3z"/>
		<path fill="#000000" d="M54.3,0h2v9.2l0,0c1.1-1.3,2.6-2,4.4-2c3.8,0,6.4,2.7,6.4,6.4S64.3,20,61,20c-2.1,0-3.9-1.1-4.6-2.5l0,0
			v2.1h-2L54.3,0L54.3,0z M60.5,18c2.6,0,4.3-2,4.3-4.5S63.2,9,60.5,9s-4.3,2-4.3,4.5C56.3,16.1,57.9,18,60.5,18z"/>
		<path fill="#000000" d="M71,0h2v19.5h-2V0z"/>
		<path fill="#000000" d="M88.5,17.4c-1.4,1.9-3.1,2.5-5.3,2.5c-3.8,0-6.2-2.8-6.2-6.4c0-3.8,2.6-6.4,6.2-6.4c3.4,0,5.8,2.4,5.8,6.4
			v0.7h-9.8c0.1,2.1,1.8,3.9,3.9,3.9c1.8,0,2.8-0.6,3.9-1.9L88.5,17.4z M86.7,12.4c-0.1-2-1.4-3.4-3.7-3.4c-2.3,0-3.7,1.4-3.9,3.4
			H86.7z"/>
		<path fill="#000000" d="M100.5,9c1.3-1.3,3.1-1.9,4.9-1.9c3.6,0,5.1,1.7,5.1,5.1v5.2c0,0.7,0.1,1.4,0.2,2.1h-1.9
			c-0.4-0.5-0.4-1.3-0.4-1.8l0,0c-0.8,1.2-2.1,2.1-4,2.1c-2.5,0-4.5-1.2-4.5-3.6c0-4,4.6-4.3,7.7-4.3h0.8v-0.4c0-1.8-1.1-2.7-3-2.7
			c-1.3,0-2.6,0.5-3.6,1.3L100.5,9z M106.3,13.7c-2.6,0-4.3,0.7-4.3,2.4c0,1.5,1.2,2.1,2.7,2.1c2.4,0,3.6-1.7,3.6-3.7v-0.8H106.3z"
			/>
		<path fill="#000000" d="M114.7,10.3c0-1.1-0.1-2-0.1-2.8h1.9c0,0.6,0,1.3,0,2l0,0c0.6-1.2,2-2.3,4-2.3c3.2,0,4.6,2,4.6,5v7.5h-2
			v-7.3c0-2-0.8-3.3-2.7-3.3c-2.6,0-3.8,1.9-3.8,4.6v5.9h-2L114.7,10.3L114.7,10.3z"/>
		<path fill="#000000" d="M139.8,17.4L139.8,17.4c-0.8,1.4-2.5,2.5-4.7,2.5c-3.4,0-6-2.7-6-6.4s2.6-6.4,6.4-6.4c1.8,0,3.2,0.8,4.4,2
			l0,0V0h2v19.5h-2V17.4L139.8,17.4z M135.5,9c-2.6,0-4.3,2-4.3,4.5s1.7,4.5,4.3,4.5s4.3-2,4.3-4.5S138.2,9,135.5,9z"/>
		<path fill="#000000" d="M153.9,0h2v9.2l0,0c1.1-1.3,2.6-2,4.4-2c3.8,0,6.4,2.7,6.4,6.4s-2.7,6.4-6,6.4c-2.1,0-3.9-1.1-4.6-2.5l0,0
			v2.1h-2L153.9,0L153.9,0z M160.3,18c2.6,0,4.3-2,4.3-4.5S162.9,9,160.3,9c-2.6,0-4.3,2-4.3,4.5C155.9,16.1,157.7,18,160.3,18z"/>
		<path fill="#000000" d="M181,16.7c0,1.1,0.1,2.1,0.1,2.8h-1.9c0-0.6,0-1.3,0-2l0,0c-0.6,1.2-2,2.3-4,2.3c-3.2,0-4.6-2-4.6-5V7.5h2
			v7.2c0,2,0.8,3.3,2.7,3.3c2.6,0,3.8-1.9,3.8-4.6V7.5h2v9.2H181z"/>
		<path fill="#000000" d="M185.5,10.3c0-1.1-0.1-2-0.1-2.8h1.9c0,0.6,0,1.3,0,2l0,0c0.6-1.2,2-2.3,4-2.3c2.6,0,3.4,1.4,3.8,2.3
			c0.8-1.4,2-2.3,3.8-2.3c3.4,0,4.6,1.9,4.6,5.1v7.3h-2v-7.3c0-1.7-0.6-3.3-3-3.3c-1.7,0-3.1,1.4-3.1,3.6v7h-1.8v-6.9
			c0-2.7-0.7-3.7-2.4-3.7c-2.6,0-3.8,1.9-3.8,4.6v5.9h-2V10.3L185.5,10.3z"/>
	</g>
</g>
</svg>
