<?xml version="1.0" encoding="UTF-8" standalone="no"?>
<!-- Created with Inkscape (http://www.inkscape.org/) -->

<svg
   xmlns:dc="http://purl.org/dc/elements/1.1/"
   xmlns:cc="http://creativecommons.org/ns#"
   xmlns:rdf="http://www.w3.org/1999/02/22-rdf-syntax-ns#"
   xmlns:svg="http://www.w3.org/2000/svg"
   xmlns="http://www.w3.org/2000/svg"
   xmlns:sodipodi="http://sodipodi.sourceforge.net/DTD/sodipodi-0.dtd"
   xmlns:inkscape="http://www.inkscape.org/namespaces/inkscape"
   width="28.200001"
   height="9.5"
   viewBox="0 0 28.200001 9.5000002"
   id="svg19285"
   version="1.1"
   inkscape:version="0.91 r13725"
   sodipodi:docname="graco.svg">
  <defs
     id="defs19287" />
  <sodipodi:namedview
     id="base"
     pagecolor="#ffffff"
     bordercolor="#666666"
     borderopacity="1.0"
     inkscape:pageopacity="0.0"
     inkscape:pageshadow="2"
     inkscape:zoom="32.539326"
     inkscape:cx="14.1"
     inkscape:cy="4.750025"
     inkscape:document-units="px"
     inkscape:current-layer="layer1"
     showgrid="false"
     units="px"
     inkscape:window-width="1280"
     inkscape:window-height="744"
     inkscape:window-x="-4"
     inkscape:window-y="-4"
     inkscape:window-maximized="1" />
  <metadata
     id="metadata19290">
    <rdf:RDF>
      <cc:Work
         rdf:about="">
        <dc:format>image/svg+xml</dc:format>
        <dc:type
           rdf:resource="http://purl.org/dc/dcmitype/StillImage" />
        <dc:title></dc:title>
      </cc:Work>
    </rdf:RDF>
  </metadata>
  <g
     inkscape:label="Layer 1"
     inkscape:groupmode="layer"
     id="layer1"
     transform="translate(0,-1042.8622)">
    <g
       id="g13411"
       transform="matrix(1.25,0,0,-1.25,14.62625,1051.4378)">
      <path
         d="M 0,0 C -5.604,0 -10.15,1.448 -10.15,3.234 -10.15,5.02 -5.604,6.469 0,6.469 5.607,6.469 10.152,5.02 10.152,3.234 10.152,1.448 5.607,0 0,0 m -0.42,6.752 c -6.145,0 -11.126,-1.653 -11.126,-3.69 0,-2.04 4.981,-3.693 11.126,-3.693 6.143,0 11.124,1.653 11.124,3.693 0,2.037 -4.981,3.69 -11.124,3.69"
         style="fill:#00539f;fill-opacity:1;fill-rule:nonzero;stroke:none"
         id="path13413"
         inkscape:connector-curvature="0" />
    </g>
    <g
       id="g13415"
       transform="matrix(1.25,0,0,-1.25,9.0622504,1047.4666)">
      <path
         d="m 0,0 -1.68,0 -0.039,-0.045 c 0,-0.047 0.02,-0.096 0.059,-0.096 l 0.44,-0.055 0.037,-0.051 c 0.023,-0.2 0.042,-0.649 0.044,-0.951 0,-0.066 -0.009,-0.091 -0.016,-0.099 -0.028,-0.026 -0.103,-0.046 -0.178,-0.046 -0.816,0 -1.304,0.699 -1.304,1.375 0,0.461 0.144,0.874 0.426,1.223 0.245,0.303 0.602,0.478 0.986,0.478 0.139,0 0.242,-0.034 0.326,-0.104 l 0.08,-0.099 0.307,-0.623 0.045,-0.023 0.08,0.074 -0.029,0.735 -0.054,0.074 c -0.117,0.055 -0.39,0.122 -0.772,0.122 -0.767,0 -1.363,-0.202 -1.823,-0.613 -0.374,-0.335 -0.581,-0.794 -0.581,-1.298 0,-0.984 0.704,-1.483 2.091,-1.483 0.57,0 0.919,0.023 1.132,0.073 l 0.056,0.075 0.009,0.289 c 0.008,0.31 0.017,0.661 0.028,0.807 0.006,0.06 0.021,0.062 0.044,0.065 l 0.271,0.056 0.049,0.1 L 0,0"
         style="fill:#00539f;fill-opacity:1;fill-rule:nonzero;stroke:none"
         id="path13417"
         inkscape:connector-curvature="0" />
    </g>
    <g
       id="g13419"
       transform="matrix(1.25,0,0,-1.25,13.96475,1048.0907)">
      <path
         d="m 0,0 0.099,0.284 c 0.113,0.331 0.251,0.74 0.366,1.035 l 0.068,0.186 0.006,0 0.01,-0.024 0.073,-0.17 C 0.771,0.971 1.094,0.253 1.211,-0.004 0.925,-0.009 0,-0.001 0,0 m -2.643,0.315 -0.005,0 c -0.117,0 -0.125,0.028 -0.125,0.069 0,0.079 0.033,0.979 0.053,1.317 0.004,0.039 0.02,0.059 0.151,0.059 0.388,0 0.637,-0.255 0.637,-0.648 0,-0.322 -0.188,-0.797 -0.711,-0.797 M 2.616,-0.841 2.399,-0.796 2.333,-0.742 C 2.141,-0.331 1.652,0.894 1.389,1.548 L 1.276,1.837 1.22,1.873 C 1.11,1.881 0.969,1.886 0.796,1.886 l -0.005,0 C 0.543,1.886 0.489,1.877 0.435,1.762 L 0.107,1.043 C -0.177,0.415 -0.531,-0.371 -0.73,-0.73 -0.751,-0.766 -0.782,-0.8 -0.825,-0.8 c -0.041,0 -0.073,0.031 -0.093,0.058 -0.199,0.311 -0.498,0.759 -0.78,1.115 0.316,0.123 0.643,0.378 0.643,0.737 l 0,0.004 c 0,0.522 -0.47,0.777 -1.43,0.777 -0.635,0 -1.182,-0.052 -1.337,-0.065 L -3.854,1.789 c 0,-0.045 0.02,-0.081 0.049,-0.081 l 0.224,-0.035 c 0.007,0 0.017,-0.002 0.017,-0.055 0.008,-0.158 0.013,-0.577 0.017,-0.882 l 0.005,-0.352 c 0.003,-0.204 0.014,-0.977 0.01,-1.141 l -0.032,-0.045 -0.276,-0.042 -0.04,-0.084 0.029,-0.038 c 0.101,0.005 0.369,0.009 0.668,0.009 l 0.684,-0.009 0.036,0.038 -0.049,0.082 -0.249,0.05 -0.036,0.039 c 0,0.218 0.013,0.769 0.019,0.944 0.055,-0.005 0.144,-0.007 0.173,-0.005 l 0.042,-0.021 c 0.31,-0.292 0.636,-0.608 0.905,-0.937 l 0.009,-0.014 -0.045,-0.014 -0.231,-0.04 -0.054,-0.087 0.038,-0.035 c 0.003,0 0.873,0.013 1.071,0.013 0.198,0 0.886,-0.008 0.982,-0.013 l 0.035,0.035 -0.048,0.087 -0.328,0.054 -0.023,0.01 -0.002,0.012 0.001,0.011 c 0.032,0.156 0.168,0.573 0.168,0.573 0,0 0.788,0.034 1.101,0.043 l 0.205,0.006 c 0.06,-0.117 0.242,-0.486 0.297,-0.619 L 1.52,-0.766 1.517,-0.781 1.498,-0.793 1.176,-0.841 1.125,-0.931 1.161,-0.966 c 0.089,0.005 0.42,0.009 0.774,0.009 l 0.579,-0.006 0.105,-0.003 0.038,0.031 c 0,0.048 -0.015,0.083 -0.041,0.094"
         style="fill:#00539f;fill-opacity:1;fill-rule:nonzero;stroke:none"
         id="path13421"
         inkscape:connector-curvature="0" />
    </g>
    <g
       id="g13423"
       transform="matrix(1.25,0,0,-1.25,20.57987,1048.7917)">
      <path
         d="m 0,0 -0.034,0.006 c -0.231,-0.081 -0.357,-0.118 -0.545,-0.145 -0.087,-0.016 -0.214,-0.03 -0.291,-0.03 -0.528,0 -1.1,0.332 -1.1,1.063 0,0.432 0.156,0.826 0.442,1.105 0.246,0.247 0.546,0.336 0.745,0.336 0.136,0 0.218,-0.052 0.255,-0.083 0.021,-0.019 0.056,-0.06 0.078,-0.105 0.087,-0.163 0.243,-0.511 0.291,-0.612 l 0.037,-0.029 0.088,0.072 -0.034,0.705 -0.031,0.06 C -0.235,2.423 -0.496,2.469 -0.802,2.469 -1.39,2.469 -1.909,2.3 -2.314,1.982 -2.446,1.876 -2.879,1.484 -2.879,0.846 l 0,-0.005 c 0,-0.834 0.592,-1.272 1.714,-1.272 0.138,0 0.346,0.025 0.456,0.049 0.202,0.041 0.561,0.189 0.698,0.251 L 0.02,-0.077 C 0.02,-0.031 0.016,-0.011 0,0"
         style="fill:#00539f;fill-opacity:1;fill-rule:nonzero;stroke:none"
         id="path13425"
         inkscape:connector-curvature="0" />
    </g>
    <g
       id="g13427"
       transform="matrix(1.25,0,0,-1.25,23.92237,1047.517)">
      <path
         d="m 0,0 c 0.001,-0.477 -0.099,-1.275 -0.763,-1.277 l -0.007,0 c -0.179,0 -0.342,0.073 -0.485,0.214 -0.24,0.24 -0.391,0.662 -0.391,1.097 -0.003,0.815 0.316,1.321 0.831,1.322 C -0.282,1.357 -0.002,0.674 0,0 M -0.679,1.49 C -1.79,1.489 -2.563,0.86 -2.562,-0.036 c 10e-4,-0.39 0.12,-0.706 0.351,-0.938 0.292,-0.291 0.752,-0.439 1.365,-0.438 l 0.006,0 c 0.579,0 1.051,0.17 1.363,0.482 0.273,0.271 0.414,0.645 0.414,1.081 C 0.935,0.966 0.3,1.493 -0.679,1.49"
         style="fill:#00539f;fill-opacity:1;fill-rule:nonzero;stroke:none"
         id="path13429"
         inkscape:connector-curvature="0" />
    </g>
    <g
       id="g13439"
       transform="matrix(1.25,0,0,-1.25,25.51737,1046.2917)">
      <path
         d="m 0,0 0.055,0.042 -0.06,0.039 -0.053,0 L -0.058,0 0,0 Z m 0.061,-0.161 -0.023,0.046 c -0.026,0.051 -0.046,0.07 -0.077,0.07 l -0.019,0 0,-0.116 -0.059,0 0,0.287 0.146,0 c 0.058,0 0.088,-0.037 0.088,-0.081 0,-0.045 -0.03,-0.075 -0.078,-0.08 l 0,-10e-4 C 0.063,-0.045 0.07,-0.053 0.101,-0.103 l 0.035,-0.058 -0.075,0 z M 0.007,-0.236 c 0.121,0 0.217,0.1 0.217,0.218 0,0.121 -0.096,0.216 -0.217,0.216 -0.122,0 -0.218,-0.095 -0.218,-0.216 0,-0.118 0.096,-0.218 0.218,-0.218 m 0,0.488 c 0.149,0 0.269,-0.123 0.269,-0.27 0,-0.15 -0.12,-0.27 -0.269,-0.27 -0.149,0 -0.271,0.12 -0.271,0.27 0,0.147 0.122,0.27 0.271,0.27"
         style="fill:#00539f;fill-opacity:1;fill-rule:nonzero;stroke:none"
         id="path13441"
         inkscape:connector-curvature="0" />
    </g>
  </g>
</svg>
