<svg xmlns="http://www.w3.org/2000/svg" viewBox="0 0 320 100" role="img" aria-label="Softsoap">
  <g transform="translate(-294.637,-246.776)">
    <path fill="#10368f" d="M 412.581 233.221 H 690.581 A 10 10 0 0 1 700.581 243.221 V 293.221 A 40 40 0 0 1 660.581 333.221 H 380.581 V 265.221 A 32 32 0 0 1 412.581 233.221 Z"/>
    <g fill="#fff" stroke="#fff" stroke-width="8" stroke-linecap="round" stroke-linejoin="round">
      <path fill="none" d="M 403.878 296.739 C 408.75 301.733 414.241 302.805 419.795 302.805 C 432.11 302.805 434.809 296.386 434.809 291.845 C 434.809 283.146 424.476 280.702 419.955 279.674 C 411.572 277.768 405.709 273.246 405.709 268.426 C 405.709 262.938 410.126 258.276 419.431 257.826 C 425.337 257.54 430.418 260.207 433.414 263.019"/>
      <path fill="none" d="M 552.795 274.63 C 550.569 272.566 546.792 270.61 542.399 270.821 C 535.483 271.151 532.198 274.569 532.198 278.594 C 532.198 282.13 536.556 285.445 542.79 286.844 C 546.152 287.597 553.836 289.389 553.836 295.768 C 553.836 299.098 551.828 303.805 542.672 303.805 C 538.542 303.805 534.458 303.02 530.836 299.357"/>
      <path d="M 481.597 286.242 C 481.597 291.747 479.345 296.778 475.739 300.384 C 472.133 303.99 467.102 306.242 461.597 306.242 C 456.092 306.242 451.061 303.99 447.455 300.384 C 443.849 296.778 441.597 291.747 441.597 286.242 C 441.597 280.737 443.849 275.706 447.455 272.1 C 451.061 268.494 456.092 266.242 461.597 266.242 C 467.102 266.242 472.133 268.494 475.739 272.1 C 479.345 275.706 481.597 280.737 481.597 286.242 Z M 470.254 276.952 C 468.024 274.564 464.995 273.112 461.597 273.112 C 458.199 273.112 455.171 274.564 452.94 276.952 C 450.707 279.341 449.347 282.595 449.347 286.242 C 449.347 289.889 450.707 293.143 452.94 295.532 C 455.171 297.92 458.199 299.372 461.597 299.372 C 464.995 299.372 468.024 297.92 470.254 295.532 C 472.487 293.143 473.847 289.889 473.847 286.242 C 473.847 282.595 472.487 279.341 470.254 276.952 Z"/>
      <path fill="none" d="M 504.215 252.798 C 499.896 248.936 491.404 251.978 491.404 258.413 L 491.404 312.033 C 491.502 316.727 486.101 317.822 483.397 316.667"/>
      <path fill="none" d="M 485.978 270.805 L 523.978 270.805"/>
      <path fill="none" d="M 512.936 259.805 L 512.936 304.805"/>
      <path d="M 599.342 286.455 C 599.342 291.96 597.09 296.992 593.484 300.597 C 589.879 304.203 584.847 306.455 579.342 306.455 C 573.837 306.455 568.805 304.203 565.2 300.597 C 561.594 296.992 559.342 291.96 559.342 286.455 C 559.342 280.95 561.594 275.918 565.2 272.313 C 568.805 268.707 573.837 266.455 579.342 266.455 C 584.847 266.455 589.879 268.707 593.484 272.313 C 597.09 275.918 599.342 280.95 599.342 286.455 Z M 587.999 277.164 C 585.768 274.777 582.74 273.325 579.342 273.325 C 575.944 273.325 572.916 274.777 570.685 277.164 C 568.453 279.554 567.091 282.808 567.091 286.455 C 567.091 290.102 568.453 293.356 570.685 295.746 C 572.916 298.133 575.944 299.585 579.342 299.585 C 582.74 299.585 585.768 298.133 587.999 295.746 C 590.231 293.356 591.593 290.102 591.593 286.455 C 591.593 282.808 590.231 279.554 587.999 277.164 Z"/>
      <path d="M 680.146 286.053 C 680.146 291.558 677.894 296.59 674.288 300.195 C 670.683 303.801 665.651 306.053 660.146 306.053 C 654.641 306.053 649.609 303.801 646.004 300.195 C 642.398 296.59 640.146 291.558 640.146 286.053 C 640.146 280.548 642.398 275.516 646.004 271.911 C 649.609 268.305 654.641 266.053 660.146 266.053 C 665.651 266.053 670.683 268.305 674.288 271.911 C 677.894 275.516 680.146 280.548 680.146 286.053 Z M 668.803 276.762 C 666.572 274.374 663.544 272.923 660.146 272.923 C 656.748 272.923 653.72 274.374 651.489 276.762 C 649.257 279.152 647.896 282.406 647.896 286.053 C 647.896 289.7 649.257 292.954 651.489 295.343 C 653.72 297.731 656.748 299.183 660.146 299.183 C 663.544 299.183 666.572 297.731 668.803 295.343 C 671.035 292.954 672.396 289.7 672.396 286.053 C 672.396 282.406 671.035 279.152 668.803 276.762 Z"/>
    </g>
  </g>
</svg>
